PathFileType	4	(X/Y/Z)	Patient4_TMGait_0pt7_02_right_37.trc.trc
DataRate	CameraRate	NumFrames	NumMarkers	Units	OrigDataRate	OrigDataStartFrame	OrigNumFrames
87.500000000000	87.500000000000	6	33	mm	87.500000000000	36	       141
Frame#	Time	Sacral			L.Shoulder			Chest			R.Shoulder			Neck			R.ASIS			L.ASIS			R.Thigh.Superior			R.Thigh.Lateral			R.Thigh.Inferior			R.Patella			L.Thigh.Superior			L.Thigh.Lateral			L.Thigh.Inferior			L.Patella			L.Shank.Superior			L.Shank.Lateral			L.Shank.Inferior			R.Shank.Superior			R.Shank.Lateral			R.Shank.Inferior			R.Heel			R.Midfoot.Superior			R.Midfoot.Lateral			R.Toe			L.Heel			L.Midfoot.Lateral			L.Midfoot.Superior			L.Toe			L.Elbow			L.Wrist			R.Elbow			R.Wrist			
		X1	Y1	Z1	X2	Y2	Z2	X3	Y3	Z3	X4	Y4	Z4	X5	Y5	Z5	X6	Y6	Z6	X7	Y7	Z7	X8	Y8	Z8	X9	Y9	Z9	X10	Y10	Z10	X11	Y11	Z11	X12	Y12	Z12	X13	Y13	Z13	X14	Y14	Z14	X15	Y15	Z15	X16	Y16	Z16	X17	Y17	Z17	X18	Y18	Z18	X19	Y19	Z19	X20	Y20	Z20	X21	Y21	Z21	X22	Y22	Z22	X23	Y23	Z23	X24	Y24	Z24	X25	Y25	Z25	X26	Y26	Z26	X27	Y27	Z27	X28	Y28	Z28	X29	Y29	Z29	X30	Y30	Z30	X31	Y31	Z31	X32	Y32	Z32	X33	Y33	Z33	

36	42.200000000000	768.046238108602	1012.462585161871	481.456273045278	976.004520779753	1417.509248581362	280.448286092917	1072.788189232383	1348.473185507991	447.065549785044	992.156557364837	1440.031188224700	613.682071945082	974.244502931222	1485.866046793027	431.278767788664	988.605207984651	932.614536205490	603.840841859561	980.842880090467	952.621982477983	325.907264113720	1050.317799728325	750.560610009840	580.566380498549	979.758045692121	634.625602301042	641.390359295531	1068.610842429295	590.733535196955	567.493724502085	1081.532988029708	502.320331385021	577.670247921890	987.601808811562	729.572332726071	348.794699562734	874.947827586576	632.119934297131	286.264273565445	945.495117348046	534.457699511329	341.520313771467	928.157569787594	454.985214522324	341.156461201584	864.015378405061	401.544298016640	337.280219004697	726.926740254868	347.345473754672	289.279656955779	723.345008157980	219.102202117510	350.615358933734	1058.699926140198	411.737928523832	585.508937968775	991.653501988829	304.265105195991	645.743537925359	1045.068914364326	211.226444325821	588.382585008011	924.649509820018	43.062367362265	555.323217354386	1094.628698661614	99.331400359898	598.183409114869	1005.318396286180	37.061205684120	632.644330804684	1213.700517847991	46.143163033479	628.775140045192	537.608372572745	131.784447409626	389.434505557068	603.299280348414	86.205117021378	316.862326041287	704.595603051645	113.329868040076	338.601661744735	798.500597769482	32.862666479420	328.255617166030	944.726891065662	1078.395186423960	148.334130724790	1189.098000373917	1098.088692687266	208.324593870121	844.929490015600	1134.288221002790	743.841867014626	808.574312875524	874.338161329651	750.967693617400	
37	42.211428571429	768.080137892430	1014.254258740712	484.661505053433	976.938491122914	1418.293072695826	282.299044586326	1074.322603558960	1349.007889903672	448.494438729782	994.862185303510	1441.194570596946	615.252705190709	975.826994736741	1486.739873521367	432.871424322219	988.614770373441	933.726604579261	606.553039695881	979.790583880412	953.150177064336	328.550608576681	1047.808610637871	749.418940266029	584.757045248865	974.408826816558	634.708816048207	643.697645647334	1063.026597275193	589.931573445274	569.949047328923	1074.526530648675	501.710443489425	579.284010746253	992.116918631375	731.623585583064	351.499063769469	883.382249126841	631.250755093182	288.376078605098	957.019300330304	534.983210329347	343.597083708791	940.505500380795	454.064402469609	342.431639033613	873.928282054642	401.303367406740	338.876149329572	734.939246939160	352.371794203883	290.679156939665	726.721902403961	224.275860180138	351.351213303436	1051.557249345531	411.489946553903	587.114490843656	984.099533939626	304.058250921910	646.917754679684	1037.404193208992	211.061647239786	589.232164540417	916.746838549865	42.929383232231	555.528763378377	1086.573586140416	99.176707513888	598.558457996401	997.370621706590	36.990949422730	632.869995965778	1205.743104470593	46.143216019652	629.048253623910	538.028858311334	146.412967551391	389.895682195007	600.796158485404	96.966089754088	317.252342965278	703.521826981712	118.176945653308	338.589001491560	791.618106880434	31.581128416722	328.036813031639	936.369987798803	1078.336207390382	153.943762673072	1183.021429828525	1082.359890985333	209.991568170922	853.147290655305	1132.238244688823	746.480859524967	827.512836206972	870.948662643738	752.567623961438	
38	42.222857142857	767.851217461557	1015.881634287729	487.780565959758	977.534459465627	1418.860367098176	284.066685757741	1075.718719088116	1349.240627458398	449.691172993902	997.672431561478	1441.984252994642	616.736940143121	977.285322589444	1487.354806069837	434.417359326860	988.453884344286	934.582354285715	609.010544414486	978.506607607821	953.549480287242	331.145071883071	1044.945264837256	748.099243531554	588.626789582188	968.951068524734	634.771770574696	645.903160061061	1057.108623350850	589.078678502263	572.102479028780	1067.213011993072	501.101421997753	580.712612902461	996.755572760183	733.845868019581	354.268355961034	892.481413151670	630.449559350247	290.436243583127	969.163558969474	535.865082017383	345.930211863742	953.605167537822	453.504136451452	344.117657219665	884.756920798305	401.269792449870	340.716589828715	744.151718278169	357.606472783334	292.136790200932	731.107353995753	229.948582444520	352.331469892785	1044.205121092721	411.227704760071	588.570042713169	976.468762712206	303.806562872740	648.017451984006	1029.666820667268	210.884835765147	589.999355144496	908.818217331503	42.807762604227	555.708544472148	1078.561279325038	98.994883388302	598.862052554971	989.406497067147	36.898646096405	633.058694275074	1197.790778911926	46.023208557226	629.253534793729	539.895606905677	161.841203894708	390.502212226480	599.585977340161	108.742568633331	317.767077861811	703.418988186499	123.879666539843	338.853721063364	785.451929618076	30.514313707893	327.938234171164	928.391235497583	1078.234837072573	159.640157733380	1176.300137732845	1065.173103586629	211.495215015925	861.460080625723	1130.079687494022	749.173639387988	847.512866259004	867.817361612088	754.183986010486	
39	42.234285714286	767.365429493694	1017.331467342648	490.769874097870	977.804673164399	1419.215344794494	285.731449056387	1076.959948197707	1349.156825142775	450.642776630382	1000.559517502004	1442.382079299497	618.123231294145	978.617005488908	1487.719064404408	435.899951257431	988.113965732885	935.220156791408	611.224553091338	977.043178649956	953.818969986157	333.685895730470	1041.804562551412	746.727985803706	592.033275163911	963.583422488176	634.867736609536	648.018020389957	1051.018371230254	588.222389280624	573.947217426494	1059.758770877979	500.524107684608	581.990684172282	1001.406694980395	736.287620766008	357.125491986235	902.106833206473	629.852823143444	292.434818462920	981.723432281853	537.223997550601	348.507839740958	967.289625353804	453.435263567425	346.160620589695	896.363095537922	401.548030691056	342.745376763190	754.424943786571	363.040819612352	293.639851516741	736.509874882057	236.065201194974	353.512086568232	1036.780793214380	410.964407279331	589.884116113308	968.874136381263	303.545130329464	649.070976650320	1021.912888272735	210.705635022619	590.689356959409	900.856373610274	42.711097655648	555.879888018407	1070.582046317597	98.806793226237	599.116136663069	981.419180078848	36.798783234527	633.229027874044	1189.835955640696	45.807109852532	629.413188386401	543.242370463103	177.695558535111	391.189956368549	599.841766864103	121.233957747857	318.378474034385	704.435276960176	130.356583431691	339.392533410972	780.319053248686	29.898325694570	328.051306387293	920.896387068276	1078.021106775365	165.392176827006	1168.737880699275	1046.612069877916	212.831287265292	869.903372001210	1127.759412958251	751.899515907037	868.546558815623	865.030517230232	755.710386902105	
40	42.245714285714	766.643635727433	1018.601245937852	493.600866811091	977.776786794717	1419.373817367295	287.272045062344	1078.033479789086	1348.769137000745	451.346450445323	1003.480235899753	1442.404096840361	619.396501919383	979.820518980888	1487.855854523681	437.293744563447	987.593640595669	935.689992475444	613.218302366964	975.433729507740	953.949149191543	336.160187850582	1038.473418795890	745.408334425825	594.895703193500	958.435721258097	635.022519570233	650.047155444862	1044.891223753682	587.392413341153	575.502507301772	1052.304858696295	499.996389191012	583.146576157122	1005.961882213595	738.994302752935	360.085720689882	912.090638651884	629.596781818078	294.360323057466	994.483241332094	539.166142530782	351.291271763663	981.381611022909	453.978369570177	348.470409814917	908.595273254434	402.240410995583	344.888554358731	765.592458425574	368.649629503239	295.168986174150	742.933645302692	242.533484985251	354.835674351380	1029.393834522225	410.708147289451	591.070266486925	961.390931852684	303.300046921528	650.093101390059	1014.186478053055	210.531276767459	591.309856458924	892.862126476764	42.646376241380	556.054421660555	1062.625238840744	98.628734767538	599.339241923214	973.408319647623	36.702857682610	633.394945861673	1181.874717793439	45.526948854320	629.547404540967	548.056909660146	193.527281402439	391.889580382043	601.708422229852	134.054563923882	319.054151244589	706.721964674517	137.456975360123	340.188158000210	776.586593737773	29.972748068756	328.459905531996	913.967620283536	1077.637231449389	171.165572398854	1160.128885216546	1026.809934526849	214.007292355517	878.533228496167	1125.245855943939	754.629051346145	890.597952191485	862.699746152833	757.022591094718	
41	42.257142857143	765.719604922950	1019.698984705775	496.261456580985	977.489722804361	1419.358960407799	288.668461058807	1078.931120899599	1348.115355726856	451.810750277350	1006.379944055558	1442.096519747279	620.540838134798	980.894935569802	1487.798999704928	438.569890241664	986.900209961928	936.042867234034	615.018199783726	973.692860000283	953.926061883822	338.544813089366	1035.039911135821	744.209882196556	597.201488834029	953.566938255925	635.238506090675	651.987615374124	1038.828897624672	586.603017130515	576.807619952407	1044.958449863974	499.524244643996	584.200561573989	1010.324605104775	742.002239993070	363.151478562058	922.247607234623	629.801934457937	296.201448213667	1007.232635550634	541.772662553911	354.219374086137	995.702334826230	455.233310942192	350.938606617389	921.298522780488	403.434627638903	347.067209500826	777.475303892302	374.384303409928	296.699596767167	750.376444400510	249.224368933984	356.240433862706	1022.121235006876	410.462558411748	592.140188044846	954.061168159104	303.088536983300	651.086852794084	1006.517878515175	210.366410697899	591.867183930261	884.840931460406	42.615203189070	556.238042494080	1054.680810493891	98.471184795079	599.544672212321	965.377495140856	36.618447551446	633.565018014655	1173.905617125705	45.214871727101	629.671266866459	554.285458601317	208.843768067404	392.540583297568	605.288878634141	146.763125960783	319.762884955384	710.418844611885	144.971002125642	341.208557390504	774.644481025009	30.934897373371	329.219109396031	907.659613321383	1077.043260942878	176.920775049228	1150.267132478947	1005.961771991630	215.044508315744	887.413711750680	1122.536648360696	757.324453069573	913.648475158228	860.966244032481	757.992584430941	
